<mxfile host="app.diagrams.net" modified="2024-03-29T15:46:10.363Z" agent="Mozilla/5.0 (Windows NT 10.0; Win64; x64) AppleWebKit/537.36 (KHTML, like Gecko) Chrome/123.0.0.0 Safari/537.36 Edg/123.0.0.0" etag="FRvisqOOK6Esr2f6GBvZ" version="24.2.1" type="device">
  <diagram name="Stránka-1" id="4BUm2LYziziiiOVImWEk">
    <mxGraphModel dx="332" dy="183" grid="1" gridSize="10" guides="1" tooltips="1" connect="1" arrows="1" fold="1" page="1" pageScale="1" pageWidth="300" pageHeight="200" math="0" shadow="0">
      <root>
        <mxCell id="0" />
        <mxCell id="1" parent="0" />
        <mxCell id="HDx2d4N_ocjqiMTv_S9g-1" value="" style="rounded=0;whiteSpace=wrap;html=1;" parent="1" vertex="1">
          <mxGeometry x="25" y="82" width="70" height="60" as="geometry" />
        </mxCell>
        <mxCell id="HDx2d4N_ocjqiMTv_S9g-2" value="" style="endArrow=none;html=1;rounded=0;exitX=1;exitY=0.5;exitDx=0;exitDy=0;" parent="1" source="HDx2d4N_ocjqiMTv_S9g-1" edge="1">
          <mxGeometry width="50" height="50" relative="1" as="geometry">
            <mxPoint x="95" y="102" as="sourcePoint" />
            <mxPoint x="255" y="72" as="targetPoint" />
          </mxGeometry>
        </mxCell>
        <mxCell id="HDx2d4N_ocjqiMTv_S9g-3" value="" style="endArrow=none;html=1;rounded=0;exitX=1;exitY=0.5;exitDx=0;exitDy=0;" parent="1" source="HDx2d4N_ocjqiMTv_S9g-1" edge="1">
          <mxGeometry width="50" height="50" relative="1" as="geometry">
            <mxPoint x="145" y="232" as="sourcePoint" />
            <mxPoint x="255" y="152" as="targetPoint" />
          </mxGeometry>
        </mxCell>
        <mxCell id="HDx2d4N_ocjqiMTv_S9g-5" value="" style="rounded=0;whiteSpace=wrap;html=1;" parent="1" vertex="1">
          <mxGeometry x="65" y="72" width="20" height="10" as="geometry" />
        </mxCell>
        <mxCell id="HDx2d4N_ocjqiMTv_S9g-6" value="" style="rounded=0;whiteSpace=wrap;html=1;" parent="1" vertex="1">
          <mxGeometry x="25" y="72" width="20" height="10" as="geometry" />
        </mxCell>
        <mxCell id="HDx2d4N_ocjqiMTv_S9g-7" value="" style="rounded=0;whiteSpace=wrap;html=1;" parent="1" vertex="1">
          <mxGeometry x="25" y="142" width="20" height="10" as="geometry" />
        </mxCell>
        <mxCell id="HDx2d4N_ocjqiMTv_S9g-8" value="" style="rounded=0;whiteSpace=wrap;html=1;" parent="1" vertex="1">
          <mxGeometry x="65" y="142" width="20" height="10" as="geometry" />
        </mxCell>
        <mxCell id="WSLgs6mWQoEM8Xy6ExiU-3" value="" style="endArrow=none;html=1;rounded=0;curved=1;" edge="1" parent="1">
          <mxGeometry width="50" height="50" relative="1" as="geometry">
            <mxPoint x="255" y="152" as="sourcePoint" />
            <mxPoint x="255" y="72" as="targetPoint" />
            <Array as="points">
              <mxPoint x="275" y="112" />
            </Array>
          </mxGeometry>
        </mxCell>
        <mxCell id="WSLgs6mWQoEM8Xy6ExiU-4" value="" style="endArrow=none;html=1;rounded=0;curved=1;" edge="1" parent="1">
          <mxGeometry width="50" height="50" relative="1" as="geometry">
            <mxPoint x="135" y="122" as="sourcePoint" />
            <mxPoint x="135" y="102" as="targetPoint" />
            <Array as="points">
              <mxPoint x="145" y="112" />
            </Array>
          </mxGeometry>
        </mxCell>
        <mxCell id="WSLgs6mWQoEM8Xy6ExiU-5" value="&lt;font style=&quot;font-size: 8px;&quot;&gt;15°&lt;/font&gt;" style="text;html=1;align=center;verticalAlign=middle;whiteSpace=wrap;rounded=0;" vertex="1" parent="1">
          <mxGeometry x="140" y="104.5" width="30" height="15" as="geometry" />
        </mxCell>
        <mxCell id="WSLgs6mWQoEM8Xy6ExiU-7" value="" style="endArrow=baseDash;dashed=1;html=1;rounded=0;startArrow=baseDash;startFill=0;endFill=0;" edge="1" parent="1">
          <mxGeometry width="50" height="50" relative="1" as="geometry">
            <mxPoint x="55" y="152" as="sourcePoint" />
            <mxPoint x="55" y="72" as="targetPoint" />
          </mxGeometry>
        </mxCell>
        <mxCell id="WSLgs6mWQoEM8Xy6ExiU-9" value="&lt;font style=&quot;font-size: 8px;&quot;&gt;16cm&lt;/font&gt;" style="text;html=1;align=center;verticalAlign=middle;whiteSpace=wrap;rounded=0;" vertex="1" parent="1">
          <mxGeometry x="55" y="104.5" width="35" height="15" as="geometry" />
        </mxCell>
        <mxCell id="WSLgs6mWQoEM8Xy6ExiU-10" value="" style="endArrow=none;html=1;rounded=0;curved=1;exitX=1;exitY=0.25;exitDx=0;exitDy=0;startSize=6;" edge="1" parent="1" source="HDx2d4N_ocjqiMTv_S9g-1">
          <mxGeometry width="50" height="50" relative="1" as="geometry">
            <mxPoint x="75" y="192" as="sourcePoint" />
            <mxPoint x="110" y="108" as="targetPoint" />
            <Array as="points">
              <mxPoint x="105" y="97" />
            </Array>
          </mxGeometry>
        </mxCell>
        <mxCell id="WSLgs6mWQoEM8Xy6ExiU-11" value="&lt;font style=&quot;font-size: 8px;&quot;&gt;82,5°&lt;/font&gt;" style="text;html=1;align=center;verticalAlign=middle;whiteSpace=wrap;rounded=0;" vertex="1" parent="1">
          <mxGeometry x="100" y="72" width="30" height="40" as="geometry" />
        </mxCell>
        <mxCell id="WSLgs6mWQoEM8Xy6ExiU-15" value="" style="endArrow=none;dashed=1;html=1;rounded=0;" edge="1" parent="1">
          <mxGeometry width="50" height="50" relative="1" as="geometry">
            <mxPoint x="95" y="72" as="sourcePoint" />
            <mxPoint x="255" y="72" as="targetPoint" />
          </mxGeometry>
        </mxCell>
        <mxCell id="WSLgs6mWQoEM8Xy6ExiU-18" value="" style="endArrow=none;dashed=1;html=1;rounded=0;exitX=1;exitY=0;exitDx=0;exitDy=0;" edge="1" parent="1" source="HDx2d4N_ocjqiMTv_S9g-1">
          <mxGeometry width="50" height="50" relative="1" as="geometry">
            <mxPoint x="75" y="202" as="sourcePoint" />
            <mxPoint x="95" y="72" as="targetPoint" />
          </mxGeometry>
        </mxCell>
        <mxCell id="WSLgs6mWQoEM8Xy6ExiU-23" value="&lt;font style=&quot;font-size: 8px;&quot;&gt;61,3cm&lt;/font&gt;" style="text;html=1;align=center;verticalAlign=middle;whiteSpace=wrap;rounded=0;rotation=-15;" vertex="1" parent="1">
          <mxGeometry x="170.41" y="86.91" width="60" height="13.26" as="geometry" />
        </mxCell>
        <mxCell id="WSLgs6mWQoEM8Xy6ExiU-26" value="&lt;font style=&quot;font-size: 8px;&quot;&gt;60,77cm&lt;/font&gt;" style="text;html=1;align=center;verticalAlign=middle;whiteSpace=wrap;rounded=0;rotation=0;" vertex="1" parent="1">
          <mxGeometry x="140" y="55" width="60" height="17" as="geometry" />
        </mxCell>
      </root>
    </mxGraphModel>
  </diagram>
</mxfile>
